<?xml version="1.0" standalone="no"?>
<svg xmlns="http://www.w3.org/2000/svg" width="202.46047049749328" height="65.82047049749326" viewBox="0 0 202.46047049749328 65.82047049749326"><g fill="#d61216" color="#d61216" transform="translate(0 0) scale(0.6582048)"><svg width="100.0" height="100.0" x="0.0" y="0.0" viewBox="0 0 100 100"><polygon points="82.65,5.03 82.541,5.115 18.835,54.832 46.537,54.832 17.501,94.896 17.349,95.104 17.458,95.019 81.166,45.301   53.464,45.301 82.5,5.239 "></polygon></svg></g><path fill="#152452" fill-rule="nonzero" d="M2.96 25.80L0 25.80L0 0.48Q3.56 0 6.16 0L6.16 0Q15.12 0 15.12 7.68L15.12 7.68Q15.12 12.92 10.64 14.72L10.64 14.72L15.72 25.80L12.72 25.80L8.04 15.44L8 15.40Q7.32 15.48 6.32 15.48L6.32 15.48Q4.76 15.48 2.96 15.24L2.96 15.24L2.96 25.80ZM2.96 2.64L2.96 2.64L2.96 12.84Q4.40 13.08 6.16 13.08L6.16 13.08Q12 13.08 12 7.68L12 7.68Q12 2.36 6.16 2.36L6.16 2.36Q4.32 2.36 2.96 2.64ZM20.68 25.80L20.68 0.48L35.56 0.48L35.56 3L23.64 3L23.64 11.36L33.68 11.36L33.68 13.88L23.64 13.88L23.64 23.28L36.08 23.28L36.08 25.80L20.68 25.80ZM38.88 25.80L47.96 0.48L51.04 0.48L60.12 25.80L57.08 25.80L55.04 19.88L44.04 19.88L41.96 25.80L38.88 25.80ZM54.16 17.40L49.48 3.80L44.84 17.40L54.16 17.40ZM64.32 25.76L64.32 25.76L64.32 0.48Q67.68 0 70.40 0L70.40 0Q76.88 0 80.32 3.92L80.32 3.92Q83.32 7.32 83.32 12.88L83.32 12.88Q83.32 19.64 79.60 23.16L79.60 23.16Q76.32 26.28 70.60 26.28L70.60 26.28Q67.76 26.28 64.32 25.76ZM67.28 2.64L67.28 2.64L67.28 23.64Q68.76 23.88 70.60 23.88L70.60 23.88Q75.36 23.88 77.88 20.84L77.88 20.84Q80.16 18.04 80.16 13.04L80.16 13.04Q80.16 7.64 77 4.72L77 4.72Q74.44 2.36 70.48 2.36L70.48 2.36Q68.44 2.36 67.28 2.64ZM92.28 15.88L83.72 0.48L86.84 0.48L93.72 13.28L100.60 0.48L103.72 0.48L95.20 15.88L95.20 25.80L92.28 25.80L92.28 15.88Z" transform="translate(80.821 0) scale(1.173)"></path><path fill="#152452" fill-rule="nonzero" d="M0 23.72L0 23.72L1.28 21.92Q4.20 23.60 7.48 23.60L7.48 23.60Q10 23.60 11.44 22.42Q12.88 21.24 12.88 19.08L12.88 19.08Q12.88 15.40 8.04 13.72L8.04 13.72Q3.92 12.32 2.08 10.60Q0.24 8.88 0.24 6.40L0.24 6.40Q0.24 3.44 2.56 1.64L2.56 1.64Q4.68 0 8.12 0L8.12 0Q11.88 0 14.96 2.08L14.96 2.08L13.64 3.88Q11.16 2.56 8.32 2.56L8.32 2.56Q6.00 2.56 4.64 3.56Q3.28 4.56 3.28 6.28L3.28 6.28Q3.28 8.96 7.44 10.52L7.44 10.52Q12.16 12.32 14.06 14.22Q15.96 16.12 15.96 19.16L15.96 19.16Q15.96 22.64 13.28 24.64L13.28 24.64Q11.08 26.28 7.92 26.28L7.92 26.28Q3.96 26.28 0 23.72ZM37.52 2.52L37.52 2.52L36.32 4.24Q33.64 2.56 30.84 2.56L30.84 2.56Q27 2.56 24.80 5.72L24.80 5.72Q22.76 8.60 22.76 13.40L22.76 13.40Q22.76 18.40 25.40 21.20L25.40 21.20Q27.64 23.64 31.16 23.64L31.16 23.64Q34.04 23.64 36.64 21.76L36.64 21.76L37.84 23.56Q34.72 26.28 30.76 26.28L30.76 26.28Q25.28 26.28 22.16 22.04L22.16 22.04Q19.60 18.56 19.60 13.40L19.60 13.40Q19.60 7.64 22.72 3.72L22.72 3.72Q25.68 0 30.28 0L30.28 0Q34.36 0 37.52 2.52ZM52.72 26.28L52.72 26.28Q47.24 26.28 44.20 21.76L44.20 21.76Q41.84 18.24 41.84 13.20L41.84 13.20Q41.84 7.36 44.96 3.60L44.96 3.60Q47.92 0 52.72 0L52.72 0Q58.20 0 61.24 4.56L61.24 4.56Q63.60 8.16 63.60 13.20L63.60 13.20Q63.60 19.04 60.48 22.76L60.48 22.76Q57.52 26.28 52.72 26.28ZM45 13.20L45 13.20Q45 18.24 47.20 21.08L47.20 21.08Q49.24 23.68 52.72 23.68L52.72 23.68Q56.72 23.68 58.76 20.32L58.76 20.32Q60.44 17.56 60.44 13.20L60.44 13.20Q60.44 8.16 58.24 5.28L58.24 5.28Q56.20 2.56 52.72 2.56L52.72 2.56Q48.76 2.56 46.68 6.04L46.68 6.04Q45 8.84 45 13.20ZM72.16 25.80L69.20 25.80L69.20 0.48Q72.76 0 75.36 0L75.36 0Q84.32 0 84.32 7.68L84.32 7.68Q84.32 12.92 79.84 14.72L79.84 14.72L84.92 25.80L81.92 25.80L77.24 15.44L77.20 15.40Q76.52 15.48 75.52 15.48L75.52 15.48Q73.96 15.48 72.16 15.24L72.16 15.24L72.16 25.80ZM72.16 2.64L72.16 2.64L72.16 12.84Q73.60 13.08 75.36 13.08L75.36 13.08Q81.20 13.08 81.20 7.68L81.20 7.68Q81.20 2.36 75.36 2.36L75.36 2.36Q73.52 2.36 72.16 2.64ZM89.88 25.80L89.88 0.48L104.76 0.48L104.76 3L92.84 3L92.84 11.36L102.88 11.36L102.88 13.88L92.84 13.88L92.84 23.28L105.28 23.28L105.28 25.80L89.88 25.80ZM119.16 0.48L121.64 0.48L109.00 27L106.48 27L119.16 0.48Z" transform="translate(80.821 38.821) scale(1)"></path></svg>